# 3ds Max Wavefront OBJ Exporter v0.97b - (c)2007 guruware
# File Created: 21.08.2018 18:01:30

#
# object arrow_Arrow
#

v  0.000000 0.090553 0.123360
v  -0.182804 0.407178 0.123360
v  -0.261150 0.452410 0.068535
v  0.000000 0.000089 0.068535
v  -0.261150 0.452410 -0.068535
v  0.000000 0.000089 -0.068535
v  -0.182804 0.407178 -0.123360
v  0.000000 0.090553 -0.123360
v  0.182804 0.407178 0.123360
v  0.261150 0.452410 0.068535
v  0.261150 0.452410 -0.068535
v  0.182804 0.407178 -0.123360
v  0.106958 0.791224 0.123360
v  0.106958 0.407314 0.123360
v  0.148900 0.452546 0.068535
v  0.148900 0.833166 0.068535
v  0.148900 0.452546 -0.068535
v  0.148900 0.833166 -0.068535
v  0.106958 0.407314 -0.123360
v  0.106958 0.791224 -0.123360
v  -0.106958 0.791224 0.123360
v  -0.148900 0.833166 0.068535
v  -0.148900 0.833166 -0.068535
v  -0.106958 0.791224 -0.123360
v  -0.106958 0.407314 0.123360
v  -0.148900 0.452546 0.068535
v  -0.148900 0.452546 -0.068535
v  -0.106958 0.407314 -0.123360
# 28 vertices

vn 0.000000 -0.428546 0.903520
vn -0.569880 -0.189619 0.799551
vn -0.939134 -0.309485 0.149152
vn 0.000000 -0.975201 0.221319
vn -0.939134 -0.309485 -0.149152
vn 0.000000 -0.975201 -0.221319
vn -0.569880 -0.189619 -0.799551
vn 0.000000 -0.428546 -0.903520
vn 0.569880 -0.189619 0.799551
vn 0.939134 -0.309485 0.149152
vn 0.939134 -0.309485 -0.149152
vn 0.569880 -0.189619 -0.799551
vn 0.229651 0.153710 0.961059
vn 0.096457 0.024874 0.995026
vn 0.915611 0.252279 0.313067
vn 0.779375 0.591487 0.206683
vn 0.915611 0.252279 -0.313067
vn 0.779375 0.591487 -0.206683
vn 0.096457 0.024874 -0.995026
vn 0.229651 0.153710 -0.961059
vn -0.229651 0.153710 0.961059
vn -0.779375 0.591487 0.206683
vn -0.779375 0.591487 -0.206683
vn -0.229651 0.153710 -0.961059
vn -0.096457 0.024874 0.995026
vn -0.915611 0.252279 0.313067
vn -0.915612 0.252279 -0.313067
vn -0.096457 0.024874 -0.995026
# 28 vertex normals

g arrow_Arrow
s 1
f 1//1 2//2 3//3 4//4 
f 4//4 3//3 5//5 6//6 
f 6//6 5//5 7//7 8//8 
f 9//9 1//1 4//4 10//10 
f 10//10 4//4 6//6 11//11 
f 12//12 11//11 6//6 8//8 
f 13//13 14//14 15//15 16//16 
f 16//16 15//15 17//17 18//18 
f 18//18 17//17 19//19 20//20 
f 21//21 13//13 16//16 22//22 
f 22//22 16//16 18//18 23//23 
f 23//23 18//18 20//20 24//24 
f 25//25 21//21 22//22 26//26 
f 26//26 22//22 23//23 27//27 
f 27//27 23//23 24//24 28//28 
f 20//20 19//19 28//28 24//24 
f 15//15 10//10 11//11 17//17 
f 14//14 9//9 10//10 15//15 
f 12//12 19//19 17//17 11//11 
f 3//3 26//26 27//27 5//5 
f 26//26 3//3 2//2 25//25 
f 7//7 5//5 27//27 28//28 
f 28//28 8//8 7//7 
f 8//8 19//19 12//12 
f 8//8 28//28 19//19 
f 25//25 14//14 13//13 21//21 
f 2//2 1//1 25//25 
f 9//9 14//14 1//1 
f 14//14 25//25 1//1 
# 23 polygons - 6 triangles

