# This file uses centimeters as units for non-parametric coordinates.

mtllib arrow_v3.mtl
g default
v 0.000000 0.064004 0.047975
v -0.105674 0.287800 0.047975
v -0.150964 0.319771 0.026653
v 0.000000 0.000063 0.006763
v -0.150964 0.319771 -0.026653
v 0.000000 0.000063 -0.006763
v -0.105674 0.287800 -0.047975
v 0.000000 0.064004 -0.047975
v 0.105674 0.287800 0.047975
v 0.150964 0.319771 0.026653
v 0.150964 0.319771 -0.026653
v 0.105674 0.287800 -0.047975
v 0.061830 0.714986 0.047975
v 0.061830 0.287896 0.047975
v 0.086075 0.319867 0.026653
v 0.086075 0.744631 0.026653
v 0.086075 0.319867 -0.026653
v 0.086075 0.744631 -0.026653
v 0.061830 0.287896 -0.047975
v 0.061830 0.714986 -0.047975
v -0.061830 0.714986 0.047975
v -0.086075 0.744631 0.026653
v -0.086075 0.744631 -0.026653
v -0.061830 0.714986 -0.047975
v -0.061830 0.287896 0.047975
v -0.086075 0.319867 0.026653
v -0.086075 0.319867 -0.026653
v -0.061830 0.287896 -0.047975
vn 0.000000 -0.252514 0.967593
vn -0.362431 -0.120593 0.924176
vn -0.915961 -0.301849 0.264390
vn 0.000000 -0.924449 0.381306
vn 0.000000 -0.924449 0.381306
vn -0.915961 -0.301849 0.264390
vn -0.915961 -0.301849 -0.264390
vn 0.000000 -0.924449 -0.381306
vn 0.000000 -0.924449 -0.381306
vn -0.915961 -0.301849 -0.264390
vn -0.362431 -0.120593 -0.924176
vn 0.000000 -0.252514 -0.967593
vn 0.362431 -0.120593 0.924176
vn 0.000000 -0.252514 0.967593
vn 0.000000 -0.924449 0.381306
vn 0.915961 -0.301849 0.264390
vn 0.915961 -0.301849 0.264390
vn 0.000000 -0.924449 0.381306
vn 0.000000 -0.924449 -0.381306
vn 0.915961 -0.301849 -0.264390
vn 0.362431 -0.120593 -0.924176
vn 0.915961 -0.301849 -0.264390
vn 0.000000 -0.924449 -0.381306
vn 0.000000 -0.252514 -0.967593
vn 0.129862 0.086919 0.987715
vn 0.053257 0.013734 0.998486
vn 0.827013 0.227868 0.513932
vn 0.743650 0.564375 0.358421
vn 0.743650 0.564375 0.358421
vn 0.827013 0.227868 0.513932
vn 0.827013 0.227868 -0.513932
vn 0.743650 0.564375 -0.358421
vn 0.743650 0.564375 -0.358421
vn 0.827013 0.227868 -0.513932
vn 0.053257 0.013734 -0.998486
vn 0.129862 0.086919 -0.987715
vn -0.129862 0.086919 0.987715
vn 0.129862 0.086919 0.987715
vn 0.743650 0.564375 0.358421
vn -0.743650 0.564375 0.358421
vn -0.743650 0.564375 0.358421
vn 0.743650 0.564375 0.358421
vn 0.743650 0.564375 -0.358421
vn -0.743650 0.564375 -0.358421
vn -0.743650 0.564375 -0.358421
vn 0.743650 0.564375 -0.358421
vn 0.129862 0.086919 -0.987715
vn -0.129862 0.086919 -0.987715
vn -0.053257 0.013734 0.998486
vn -0.129862 0.086919 0.987715
vn -0.743650 0.564375 0.358421
vn -0.827013 0.227868 0.513932
vn -0.827013 0.227868 0.513932
vn -0.743650 0.564375 0.358421
vn -0.743650 0.564375 -0.358421
vn -0.827013 0.227867 -0.513931
vn -0.827013 0.227867 -0.513931
vn -0.743650 0.564375 -0.358421
vn -0.129862 0.086919 -0.987715
vn -0.053257 0.013734 -0.998486
vn 0.129862 0.086919 -0.987715
vn 0.053257 0.013734 -0.998486
vn -0.053257 0.013734 -0.998486
vn -0.129862 0.086919 -0.987715
vn 0.827013 0.227868 0.513932
vn 0.915961 -0.301849 0.264390
vn 0.915961 -0.301849 -0.264390
vn 0.827013 0.227868 -0.513932
vn 0.053257 0.013734 0.998486
vn 0.362431 -0.120593 0.924176
vn 0.915961 -0.301849 0.264390
vn 0.827013 0.227868 0.513932
vn 0.362431 -0.120593 -0.924176
vn 0.053257 0.013734 -0.998486
vn 0.827013 0.227868 -0.513932
vn 0.915961 -0.301849 -0.264390
vn -0.915961 -0.301849 0.264390
vn -0.827013 0.227868 0.513932
vn -0.827013 0.227867 -0.513931
vn -0.915961 -0.301849 -0.264390
vn -0.827013 0.227868 0.513932
vn -0.915961 -0.301849 0.264390
vn -0.362431 -0.120593 0.924176
vn -0.053257 0.013734 0.998486
vn -0.362431 -0.120593 -0.924176
vn -0.915961 -0.301849 -0.264390
vn -0.827013 0.227867 -0.513931
vn -0.053257 0.013734 -0.998486
vn -0.053257 0.013734 -0.998486
vn 0.000000 -0.252514 -0.967593
vn -0.362431 -0.120593 -0.924176
vn 0.000000 -0.252514 -0.967593
vn 0.053257 0.013734 -0.998486
vn 0.362431 -0.120593 -0.924176
vn 0.000000 -0.252514 -0.967593
vn -0.053257 0.013734 -0.998486
vn 0.053257 0.013734 -0.998486
vn -0.053257 0.013734 0.998486
vn 0.053257 0.013734 0.998486
vn 0.129862 0.086919 0.987715
vn -0.129862 0.086919 0.987715
vn -0.362431 -0.120593 0.924176
vn 0.000000 -0.252514 0.967593
vn -0.053257 0.013734 0.998486
vn 0.362431 -0.120593 0.924176
vn 0.053257 0.013734 0.998486
vn 0.000000 -0.252514 0.967593
vn 0.053257 0.013734 0.998486
vn -0.053257 0.013734 0.998486
vn 0.000000 -0.252514 0.967593
s off
g arrow_v2:arrow_Arrow
usemtl initialShadingGroup
f 1//1 2//2 3//3 4//4
f 4//5 3//6 5//7 6//8
f 6//9 5//10 7//11 8//12
f 9//13 1//14 4//15 10//16
f 10//17 4//18 6//19 11//20
f 12//21 11//22 6//23 8//24
f 13//25 14//26 15//27 16//28
f 16//29 15//30 17//31 18//32
f 18//33 17//34 19//35 20//36
f 21//37 13//38 16//39 22//40
f 22//41 16//42 18//43 23//44
f 23//45 18//46 20//47 24//48
f 25//49 21//50 22//51 26//52
f 26//53 22//54 23//55 27//56
f 27//57 23//58 24//59 28//60
f 20//61 19//62 28//63 24//64
f 15//65 10//66 11//67 17//68
f 14//69 9//70 10//71 15//72
f 12//73 19//74 17//75 11//76
f 3//77 26//78 27//79 5//80
f 26//81 3//82 2//83 25//84
f 7//85 5//86 27//87 28//88
f 28//89 8//90 7//91
f 8//92 19//93 12//94
f 8//95 28//96 19//97
f 25//98 14//99 13//100 21//101
f 2//102 1//103 25//104
f 9//105 14//106 1//107
f 14//108 25//109 1//110
